<?xml version="1.0" encoding="UTF-8" standalone="no"?>
<!-- Generated by IcoMoon.io -->

<svg
   version="1.1"
   width="20"
   height="20"
   viewBox="0 0 20 20"
   id="svg6"
   sodipodi:docname="editor-paste-word.svg"
   inkscape:export-filename="editor-paste-word.png"
   inkscape:export-xdpi="1920"
   inkscape:export-ydpi="1920"
   inkscape:version="1.2.2 (b0a8486541, 2022-12-01)"
   xmlns:inkscape="http://www.inkscape.org/namespaces/inkscape"
   xmlns:sodipodi="http://sodipodi.sourceforge.net/DTD/sodipodi-0.dtd"
   xmlns="http://www.w3.org/2000/svg"
   xmlns:svg="http://www.w3.org/2000/svg">
  <defs
     id="defs10" />
  <sodipodi:namedview
     id="namedview8"
     pagecolor="#ffffff"
     bordercolor="#666666"
     borderopacity="1.0"
     inkscape:showpageshadow="2"
     inkscape:pageopacity="0.0"
     inkscape:pagecheckerboard="0"
     inkscape:deskcolor="#d1d1d1"
     showgrid="false"
     inkscape:zoom="11.8"
     inkscape:cx="10.042373"
     inkscape:cy="10"
     inkscape:window-width="2560"
     inkscape:window-height="1355"
     inkscape:window-x="0"
     inkscape:window-y="0"
     inkscape:window-maximized="1"
     inkscape:current-layer="svg6" />
  <rect
     style="fill:#ffffff;stroke:#ffffff"
     id="rect343"
     width="12.152808"
     height="8.9463367"
     x="4.2271552"
     y="8.1470757" />
  <g
     id="g2"
     style="fill:#999999" />
  <path
     d="M12.38 2l2.62 3v1h-10v-1l2.64-3h4.74zM10 5q0.41 0 0.705-0.295t0.295-0.705-0.295-0.705-0.705-0.295-0.705 0.295-0.295 0.705 0.295 0.705 0.705 0.295zM18 17v-12q0-0.41-0.295-0.705t-0.705-0.295h-1.54l0.54 0.63v2.37h-12v-2.38l0.55-0.62h-1.55q-0.41 0-0.705 0.295t-0.295 0.705v12q0 0.41 0.295 0.705t0.705 0.295h14q0.41 0 0.705-0.295t0.295-0.705zM15 9l-2 7h-2l-1-5-1 5h-2.080l-1.92-7h2l1 5 1-5h2l1 5 1-5h2z"
     fill="#000000"
     id="path4"
     style="fill:#999999" />
</svg>
